<svg xmlns="http://www.w3.org/2000/svg" width="36" height="36" fill="#fff" viewBox="0 0 36 36"><path d="M11.8,30.8a3.6,3.6,0,1,0,3.6,3.6A3.6,3.6,0,0,0,11.8,30.8ZM1,2V5.6H4.6l6.48,13.662-2.43,4.41A3.48,3.48,0,0,0,8.2,25.4,3.611,3.611,0,0,0,11.8,29H33.4V25.4H12.556a.446.446,0,0,1-.45-.45l.054-.216L13.78,21.8H27.19a3.583,3.583,0,0,0,3.15-1.854L36.784,8.264A1.759,1.759,0,0,0,37,7.4a1.805,1.805,0,0,0-1.8-1.8H8.578L6.886,2H1ZM29.8,30.8a3.6,3.6,0,1,0,3.6,3.6A3.6,3.6,0,0,0,29.8,30.8Z" transform="translate(-1 -2)"/></svg>
